<mxfile host="drawio-plugin" modified="2021-11-09T12:35:59.364Z" agent="5.0 (Windows NT 6.2; Win64; x64) AppleWebKit/537.36 (KHTML, like Gecko) Chrome/89.0.4389.114 Safari/537.36" etag="-lj73Q-9OGfq3Aa3m-LV" version="14.7.4" type="embed"><diagram id="C5RBs43oDa-KdzZeNtuy" name="Page-1"><mxGraphModel dx="1467" dy="1069" grid="0" gridSize="10" guides="1" tooltips="1" connect="1" arrows="1" fold="1" page="1" pageScale="1" pageWidth="2339" pageHeight="3300" background="#ffffff" math="0" shadow="0"><root><mxCell id="WIyWlLk6GJQsqaUBKTNV-0"/><mxCell id="WIyWlLk6GJQsqaUBKTNV-1" parent="WIyWlLk6GJQsqaUBKTNV-0"/><mxCell id="zkfFHV4jXpPFQw0GAbJ--17" value="Airline" style="swimlane;fontStyle=0;align=center;verticalAlign=top;childLayout=stackLayout;horizontal=1;startSize=26;horizontalStack=0;resizeParent=1;resizeLast=0;collapsible=1;marginBottom=0;shadow=0;strokeWidth=1;fillColor=#F5AB50;strokeColor=#909090;fontColor=#1A1A1A;" parent="WIyWlLk6GJQsqaUBKTNV-1" vertex="1"><mxGeometry x="533" y="520" width="187" height="154" as="geometry"><mxRectangle x="560" y="520" width="160" height="26" as="alternateBounds"/></mxGeometry></mxCell><mxCell id="zkfFHV4jXpPFQw0GAbJ--20" value="fleet" style="text;align=left;verticalAlign=top;spacingLeft=4;spacingRight=4;overflow=hidden;rotatable=0;points=[[0,0.5],[1,0.5]];portConstraint=eastwest;shadow=0;html=0;fontColor=#1A1A1A;" parent="zkfFHV4jXpPFQw0GAbJ--17" vertex="1"><mxGeometry y="26" width="187" height="26" as="geometry"/></mxCell><mxCell id="zkfFHV4jXpPFQw0GAbJ--21" value="employees " style="text;align=left;verticalAlign=top;spacingLeft=4;spacingRight=4;overflow=hidden;rotatable=0;points=[[0,0.5],[1,0.5]];portConstraint=eastwest;shadow=0;html=0;fontColor=#1A1A1A;" parent="zkfFHV4jXpPFQw0GAbJ--17" vertex="1"><mxGeometry y="52" width="187" height="26" as="geometry"/></mxCell><mxCell id="zkfFHV4jXpPFQw0GAbJ--22" value="flights" style="text;align=left;verticalAlign=top;spacingLeft=4;spacingRight=4;overflow=hidden;rotatable=0;points=[[0,0.5],[1,0.5]];portConstraint=eastwest;shadow=0;html=0;fontColor=#1A1A1A;" parent="zkfFHV4jXpPFQw0GAbJ--17" vertex="1"><mxGeometry y="78" width="187" height="26" as="geometry"/></mxCell><mxCell id="HoxNiRwLISyxpea-4E4_-16" value="" style="verticalLabelPosition=bottom;shadow=0;dashed=0;align=center;html=1;verticalAlign=top;strokeWidth=1;shape=mxgraph.mockup.markup.line;strokeColor=#999999;" parent="zkfFHV4jXpPFQw0GAbJ--17" vertex="1"><mxGeometry y="104" width="187" height="20" as="geometry"/></mxCell><mxCell id="HoxNiRwLISyxpea-4E4_-14" value="Airline()" style="text;align=left;verticalAlign=top;spacingLeft=4;spacingRight=4;overflow=hidden;rotatable=0;points=[[0,0.5],[1,0.5]];portConstraint=eastwest;shadow=0;html=0;fontColor=#1A1A1A;" parent="zkfFHV4jXpPFQw0GAbJ--17" vertex="1"><mxGeometry y="124" width="187" height="26" as="geometry"/></mxCell><mxCell id="qUsb-Or9NkMAYd_KjXbj-0" value="Employee" style="swimlane;fontStyle=0;align=center;verticalAlign=top;childLayout=stackLayout;horizontal=1;startSize=26;horizontalStack=0;resizeParent=1;resizeLast=0;collapsible=1;marginBottom=0;shadow=0;strokeWidth=1;fillColor=#F5AB50;strokeColor=#909090;fontColor=#1A1A1A;" parent="WIyWlLk6GJQsqaUBKTNV-1" vertex="1"><mxGeometry x="874.5" y="671" width="168" height="150" as="geometry"><mxRectangle x="230" y="140" width="160" height="26" as="alternateBounds"/></mxGeometry></mxCell><mxCell id="qUsb-Or9NkMAYd_KjXbj-1" value="firstName" style="text;align=left;verticalAlign=top;spacingLeft=4;spacingRight=4;overflow=hidden;rotatable=0;points=[[0,0.5],[1,0.5]];portConstraint=eastwest;fontColor=#1A1A1A;" parent="qUsb-Or9NkMAYd_KjXbj-0" vertex="1"><mxGeometry y="26" width="168" height="26" as="geometry"/></mxCell><mxCell id="qUsb-Or9NkMAYd_KjXbj-2" value="lastName" style="text;align=left;verticalAlign=top;spacingLeft=4;spacingRight=4;overflow=hidden;rotatable=0;points=[[0,0.5],[1,0.5]];portConstraint=eastwest;shadow=0;html=0;fontColor=#1A1A1A;" parent="qUsb-Or9NkMAYd_KjXbj-0" vertex="1"><mxGeometry y="52" width="168" height="26" as="geometry"/></mxCell><mxCell id="qUsb-Or9NkMAYd_KjXbj-3" value="dateOfBirth" style="text;align=left;verticalAlign=top;spacingLeft=4;spacingRight=4;overflow=hidden;rotatable=0;points=[[0,0.5],[1,0.5]];portConstraint=eastwest;shadow=0;html=0;fontColor=#1A1A1A;" parent="qUsb-Or9NkMAYd_KjXbj-0" vertex="1"><mxGeometry y="78" width="168" height="26" as="geometry"/></mxCell><mxCell id="HoxNiRwLISyxpea-4E4_-23" value="" style="verticalLabelPosition=bottom;shadow=0;dashed=0;align=center;html=1;verticalAlign=top;strokeWidth=1;shape=mxgraph.mockup.markup.line;strokeColor=#999999;" parent="qUsb-Or9NkMAYd_KjXbj-0" vertex="1"><mxGeometry y="104" width="168" height="20" as="geometry"/></mxCell><mxCell id="HoxNiRwLISyxpea-4E4_-24" value="Employee()" style="text;align=left;verticalAlign=top;spacingLeft=4;spacingRight=4;overflow=hidden;rotatable=0;points=[[0,0.5],[1,0.5]];portConstraint=eastwest;shadow=0;html=0;fontColor=#1A1A1A;" parent="qUsb-Or9NkMAYd_KjXbj-0" vertex="1"><mxGeometry y="124" width="168" height="26" as="geometry"/></mxCell><mxCell id="qUsb-Or9NkMAYd_KjXbj-7" value="Fleet" style="swimlane;fontStyle=0;align=center;verticalAlign=top;childLayout=stackLayout;horizontal=1;startSize=26;horizontalStack=0;resizeParent=1;resizeLast=0;collapsible=1;marginBottom=0;shadow=0;strokeWidth=1;fillColor=#F5AB50;strokeColor=#909090;fontColor=#1A1A1A;" parent="WIyWlLk6GJQsqaUBKTNV-1" vertex="1"><mxGeometry x="874.5" y="522" width="160" height="124" as="geometry"><mxRectangle x="230" y="140" width="160" height="26" as="alternateBounds"/></mxGeometry></mxCell><mxCell id="qUsb-Or9NkMAYd_KjXbj-8" value="planes" style="text;align=left;verticalAlign=top;spacingLeft=4;spacingRight=4;overflow=hidden;rotatable=0;points=[[0,0.5],[1,0.5]];portConstraint=eastwest;fontColor=#1A1A1A;" parent="qUsb-Or9NkMAYd_KjXbj-7" vertex="1"><mxGeometry y="26" width="160" height="26" as="geometry"/></mxCell><mxCell id="HoxNiRwLISyxpea-4E4_-19" value="" style="verticalLabelPosition=bottom;shadow=0;dashed=0;align=center;html=1;verticalAlign=top;strokeWidth=1;shape=mxgraph.mockup.markup.line;strokeColor=#999999;" parent="qUsb-Or9NkMAYd_KjXbj-7" vertex="1"><mxGeometry y="52" width="160" height="20" as="geometry"/></mxCell><mxCell id="HoxNiRwLISyxpea-4E4_-36" value="Fleet()" style="text;align=left;verticalAlign=top;spacingLeft=4;spacingRight=4;overflow=hidden;rotatable=0;points=[[0,0.5],[1,0.5]];portConstraint=eastwest;shadow=0;html=0;fontColor=#1A1A1A;" parent="qUsb-Or9NkMAYd_KjXbj-7" vertex="1"><mxGeometry y="72" width="160" height="26" as="geometry"/></mxCell><mxCell id="HoxNiRwLISyxpea-4E4_-15" value="addPlane(plane)" style="text;align=left;verticalAlign=top;spacingLeft=4;spacingRight=4;overflow=hidden;rotatable=0;points=[[0,0.5],[1,0.5]];portConstraint=eastwest;shadow=0;html=0;fontColor=#1A1A1A;" parent="qUsb-Or9NkMAYd_KjXbj-7" vertex="1"><mxGeometry y="98" width="160" height="26" as="geometry"/></mxCell><mxCell id="qUsb-Or9NkMAYd_KjXbj-13" value="Plane" style="swimlane;fontStyle=0;align=center;verticalAlign=top;childLayout=stackLayout;horizontal=1;startSize=26;horizontalStack=0;resizeParent=1;resizeLast=0;collapsible=1;marginBottom=0;shadow=0;strokeWidth=1;fillColor=#F5AB50;strokeColor=#909090;fontColor=#1A1A1A;" parent="WIyWlLk6GJQsqaUBKTNV-1" vertex="1"><mxGeometry x="1120" y="520" width="207" height="202" as="geometry"><mxRectangle x="230" y="140" width="160" height="26" as="alternateBounds"/></mxGeometry></mxCell><mxCell id="qUsb-Or9NkMAYd_KjXbj-14" value="planeType" style="text;align=left;verticalAlign=top;spacingLeft=4;spacingRight=4;overflow=hidden;rotatable=0;points=[[0,0.5],[1,0.5]];portConstraint=eastwest;fontColor=#1A1A1A;" parent="qUsb-Or9NkMAYd_KjXbj-13" vertex="1"><mxGeometry y="26" width="207" height="26" as="geometry"/></mxCell><mxCell id="qUsb-Or9NkMAYd_KjXbj-15" value="seatsEconomy" style="text;align=left;verticalAlign=top;spacingLeft=4;spacingRight=4;overflow=hidden;rotatable=0;points=[[0,0.5],[1,0.5]];portConstraint=eastwest;shadow=0;html=0;fontColor=#1A1A1A;" parent="qUsb-Or9NkMAYd_KjXbj-13" vertex="1"><mxGeometry y="52" width="207" height="26" as="geometry"/></mxCell><mxCell id="qUsb-Or9NkMAYd_KjXbj-16" value="seatsBusiness" style="text;align=left;verticalAlign=top;spacingLeft=4;spacingRight=4;overflow=hidden;rotatable=0;points=[[0,0.5],[1,0.5]];portConstraint=eastwest;shadow=0;html=0;fontColor=#1A1A1A;" parent="qUsb-Or9NkMAYd_KjXbj-13" vertex="1"><mxGeometry y="78" width="207" height="26" as="geometry"/></mxCell><mxCell id="qUsb-Or9NkMAYd_KjXbj-17" value="seatsFirstclass" style="text;align=left;verticalAlign=top;spacingLeft=4;spacingRight=4;overflow=hidden;rotatable=0;points=[[0,0.5],[1,0.5]];portConstraint=eastwest;shadow=0;html=0;fontColor=#1A1A1A;" parent="qUsb-Or9NkMAYd_KjXbj-13" vertex="1"><mxGeometry y="104" width="207" height="26" as="geometry"/></mxCell><mxCell id="HoxNiRwLISyxpea-4E4_-21" value="" style="verticalLabelPosition=bottom;shadow=0;dashed=0;align=center;html=1;verticalAlign=top;strokeWidth=1;shape=mxgraph.mockup.markup.line;strokeColor=#999999;" parent="qUsb-Or9NkMAYd_KjXbj-13" vertex="1"><mxGeometry y="130" width="207" height="20" as="geometry"/></mxCell><mxCell id="HoxNiRwLISyxpea-4E4_-20" value="Plane()" style="text;align=left;verticalAlign=top;spacingLeft=4;spacingRight=4;overflow=hidden;rotatable=0;points=[[0,0.5],[1,0.5]];portConstraint=eastwest;shadow=0;html=0;fontColor=#1A1A1A;" parent="qUsb-Or9NkMAYd_KjXbj-13" vertex="1"><mxGeometry y="150" width="207" height="26" as="geometry"/></mxCell><mxCell id="HoxNiRwLISyxpea-4E4_-22" value="getSeatsFor(bookingclass)" style="text;align=left;verticalAlign=top;spacingLeft=4;spacingRight=4;overflow=hidden;rotatable=0;points=[[0,0.5],[1,0.5]];portConstraint=eastwest;shadow=0;html=0;fontColor=#1A1A1A;" parent="qUsb-Or9NkMAYd_KjXbj-13" vertex="1"><mxGeometry y="176" width="207" height="26" as="geometry"/></mxCell><mxCell id="qUsb-Or9NkMAYd_KjXbj-19" value="Booking" style="swimlane;fontStyle=0;align=center;verticalAlign=top;childLayout=stackLayout;horizontal=1;startSize=26;horizontalStack=0;resizeParent=1;resizeLast=0;collapsible=1;marginBottom=0;shadow=0;strokeWidth=1;fillColor=#F5AB50;strokeColor=#909090;fontColor=#1A1A1A;" parent="WIyWlLk6GJQsqaUBKTNV-1" vertex="1"><mxGeometry x="1207" y="874" width="185" height="155" as="geometry"><mxRectangle x="230" y="140" width="160" height="26" as="alternateBounds"/></mxGeometry></mxCell><mxCell id="qUsb-Or9NkMAYd_KjXbj-40" value="customers" style="text;align=left;verticalAlign=top;spacingLeft=4;spacingRight=4;overflow=hidden;rotatable=0;points=[[0,0.5],[1,0.5]];portConstraint=eastwest;fontColor=#1A1A1A;" parent="qUsb-Or9NkMAYd_KjXbj-19" vertex="1"><mxGeometry y="26" width="185" height="26" as="geometry"/></mxCell><mxCell id="qUsb-Or9NkMAYd_KjXbj-79" value="flights" style="text;align=left;verticalAlign=top;spacingLeft=4;spacingRight=4;overflow=hidden;rotatable=0;points=[[0,0.5],[1,0.5]];portConstraint=eastwest;fontColor=#1A1A1A;" parent="qUsb-Or9NkMAYd_KjXbj-19" vertex="1"><mxGeometry y="52" width="185" height="26" as="geometry"/></mxCell><mxCell id="HoxNiRwLISyxpea-4E4_-47" value="passengers" style="text;align=left;verticalAlign=top;spacingLeft=4;spacingRight=4;overflow=hidden;rotatable=0;points=[[0,0.5],[1,0.5]];portConstraint=eastwest;fontColor=#1A1A1A;" parent="qUsb-Or9NkMAYd_KjXbj-19" vertex="1"><mxGeometry y="78" width="185" height="26" as="geometry"/></mxCell><mxCell id="HoxNiRwLISyxpea-4E4_-48" value="" style="verticalLabelPosition=bottom;shadow=0;dashed=0;align=center;html=1;verticalAlign=top;strokeWidth=1;shape=mxgraph.mockup.markup.line;strokeColor=#999999;" parent="qUsb-Or9NkMAYd_KjXbj-19" vertex="1"><mxGeometry y="104" width="185" height="20" as="geometry"/></mxCell><mxCell id="HoxNiRwLISyxpea-4E4_-54" value="Booking()" style="text;align=left;verticalAlign=top;spacingLeft=4;spacingRight=4;overflow=hidden;rotatable=0;points=[[0,0.5],[1,0.5]];portConstraint=eastwest;fontColor=#1A1A1A;" parent="qUsb-Or9NkMAYd_KjXbj-19" vertex="1"><mxGeometry y="124" width="185" height="26" as="geometry"/></mxCell><mxCell id="qUsb-Or9NkMAYd_KjXbj-80" style="edgeStyle=orthogonalEdgeStyle;orthogonalLoop=1;jettySize=auto;html=1;entryX=0;entryY=0.5;entryDx=0;entryDy=0;fontSize=15;strokeColor=#182E3E;fontColor=#1A1A1A;labelBackgroundColor=#EEEEEE;" parent="WIyWlLk6GJQsqaUBKTNV-1" source="qUsb-Or9NkMAYd_KjXbj-25" target="qUsb-Or9NkMAYd_KjXbj-15" edge="1"><mxGeometry relative="1" as="geometry"><Array as="points"><mxPoint x="960" y="850"/><mxPoint x="1080" y="850"/><mxPoint x="1080" y="585"/></Array></mxGeometry></mxCell><mxCell id="qUsb-Or9NkMAYd_KjXbj-25" value="Flight" style="swimlane;fontStyle=0;align=center;verticalAlign=top;childLayout=stackLayout;horizontal=1;startSize=26;horizontalStack=0;resizeParent=1;resizeLast=0;collapsible=1;marginBottom=0;shadow=0;strokeWidth=1;fillColor=#F5AB50;strokeColor=#909090;fontColor=#1A1A1A;" parent="WIyWlLk6GJQsqaUBKTNV-1" vertex="1"><mxGeometry x="775" y="900" width="277" height="184" as="geometry"><mxRectangle x="230" y="140" width="160" height="26" as="alternateBounds"/></mxGeometry></mxCell><mxCell id="qUsb-Or9NkMAYd_KjXbj-81" value="departureTime" style="text;align=left;verticalAlign=top;spacingLeft=4;spacingRight=4;overflow=hidden;rotatable=0;points=[[0,0.5],[1,0.5]];portConstraint=eastwest;fontColor=#1A1A1A;" parent="qUsb-Or9NkMAYd_KjXbj-25" vertex="1"><mxGeometry y="26" width="277" height="26" as="geometry"/></mxCell><mxCell id="qUsb-Or9NkMAYd_KjXbj-28" value="plane" style="text;align=left;verticalAlign=top;spacingLeft=4;spacingRight=4;overflow=hidden;rotatable=0;points=[[0,0.5],[1,0.5]];portConstraint=eastwest;fontColor=#1A1A1A;" parent="qUsb-Or9NkMAYd_KjXbj-25" vertex="1"><mxGeometry y="52" width="277" height="26" as="geometry"/></mxCell><mxCell id="qUsb-Or9NkMAYd_KjXbj-31" value="flightRoute" style="text;align=left;verticalAlign=top;spacingLeft=4;spacingRight=4;overflow=hidden;rotatable=0;points=[[0,0.5],[1,0.5]];portConstraint=eastwest;fontColor=#1A1A1A;" parent="qUsb-Or9NkMAYd_KjXbj-25" vertex="1"><mxGeometry y="78" width="277" height="26" as="geometry"/></mxCell><mxCell id="HoxNiRwLISyxpea-4E4_-27" value="" style="verticalLabelPosition=bottom;shadow=0;dashed=0;align=center;html=1;verticalAlign=top;strokeWidth=1;shape=mxgraph.mockup.markup.line;strokeColor=#999999;" parent="qUsb-Or9NkMAYd_KjXbj-25" vertex="1"><mxGeometry y="104" width="277" height="20" as="geometry"/></mxCell><mxCell id="HoxNiRwLISyxpea-4E4_-28" value="Flight()" style="text;align=left;verticalAlign=top;spacingLeft=4;spacingRight=4;overflow=hidden;rotatable=0;points=[[0,0.5],[1,0.5]];portConstraint=eastwest;fontColor=#1A1A1A;" parent="qUsb-Or9NkMAYd_KjXbj-25" vertex="1"><mxGeometry y="124" width="277" height="26" as="geometry"/></mxCell><mxCell id="HoxNiRwLISyxpea-4E4_-30" value="exists(flight)" style="text;align=left;verticalAlign=top;spacingLeft=4;spacingRight=4;overflow=hidden;rotatable=0;points=[[0,0.5],[1,0.5]];portConstraint=eastwest;fontColor=#1A1A1A;" parent="qUsb-Or9NkMAYd_KjXbj-25" vertex="1"><mxGeometry y="150" width="277" height="26" as="geometry"/></mxCell><mxCell id="qUsb-Or9NkMAYd_KjXbj-26" value="FlightRoute" style="swimlane;fontStyle=0;align=center;verticalAlign=top;childLayout=stackLayout;horizontal=1;startSize=26;horizontalStack=0;resizeParent=1;resizeLast=0;collapsible=1;marginBottom=0;shadow=0;strokeWidth=1;fillColor=#F5AB50;strokeColor=#909090;fontColor=#1A1A1A;" parent="WIyWlLk6GJQsqaUBKTNV-1" vertex="1"><mxGeometry x="1120" y="1120" width="160" height="237" as="geometry"><mxRectangle x="230" y="140" width="160" height="26" as="alternateBounds"/></mxGeometry></mxCell><mxCell id="qUsb-Or9NkMAYd_KjXbj-41" value="arrivalLocation" style="text;align=left;verticalAlign=top;spacingLeft=4;spacingRight=4;overflow=hidden;rotatable=0;points=[[0,0.5],[1,0.5]];portConstraint=eastwest;fontColor=#1A1A1A;" parent="qUsb-Or9NkMAYd_KjXbj-26" vertex="1"><mxGeometry y="26" width="160" height="26" as="geometry"/></mxCell><mxCell id="qUsb-Or9NkMAYd_KjXbj-42" value="departureLocation" style="text;align=left;verticalAlign=top;spacingLeft=4;spacingRight=4;overflow=hidden;rotatable=0;points=[[0,0.5],[1,0.5]];portConstraint=eastwest;fontColor=#1A1A1A;" parent="qUsb-Or9NkMAYd_KjXbj-26" vertex="1"><mxGeometry y="52" width="160" height="26" as="geometry"/></mxCell><mxCell id="qUsb-Or9NkMAYd_KjXbj-43" value="duration" style="text;align=left;verticalAlign=top;spacingLeft=4;spacingRight=4;overflow=hidden;rotatable=0;points=[[0,0.5],[1,0.5]];portConstraint=eastwest;fontColor=#1A1A1A;" parent="qUsb-Or9NkMAYd_KjXbj-26" vertex="1"><mxGeometry y="78" width="160" height="26" as="geometry"/></mxCell><mxCell id="0" value="priceEconomy" style="text;align=left;verticalAlign=top;spacingLeft=4;spacingRight=4;overflow=hidden;rotatable=0;points=[[0,0.5],[1,0.5]];portConstraint=eastwest;fontColor=#1A1A1A;" parent="qUsb-Or9NkMAYd_KjXbj-26" vertex="1"><mxGeometry y="104" width="160" height="26" as="geometry"/></mxCell><mxCell id="qUsb-Or9NkMAYd_KjXbj-44" value="priceBusiness" style="text;align=left;verticalAlign=top;spacingLeft=4;spacingRight=4;overflow=hidden;rotatable=0;points=[[0,0.5],[1,0.5]];portConstraint=eastwest;fontColor=#1A1A1A;" parent="qUsb-Or9NkMAYd_KjXbj-26" vertex="1"><mxGeometry y="130" width="160" height="26" as="geometry"/></mxCell><mxCell id="1" value="priceFirstClass" style="text;align=left;verticalAlign=top;spacingLeft=4;spacingRight=4;overflow=hidden;rotatable=0;points=[[0,0.5],[1,0.5]];portConstraint=eastwest;fontColor=#1A1A1A;" parent="qUsb-Or9NkMAYd_KjXbj-26" vertex="1"><mxGeometry y="156" width="160" height="26" as="geometry"/></mxCell><mxCell id="HoxNiRwLISyxpea-4E4_-32" value="" style="verticalLabelPosition=bottom;shadow=0;dashed=0;align=center;html=1;verticalAlign=top;strokeWidth=1;shape=mxgraph.mockup.markup.line;strokeColor=#999999;" parent="qUsb-Or9NkMAYd_KjXbj-26" vertex="1"><mxGeometry y="182" width="160" height="20" as="geometry"/></mxCell><mxCell id="HoxNiRwLISyxpea-4E4_-31" value="FlightRoute()" style="text;align=left;verticalAlign=top;spacingLeft=4;spacingRight=4;overflow=hidden;rotatable=0;points=[[0,0.5],[1,0.5]];portConstraint=eastwest;fontColor=#1A1A1A;" parent="qUsb-Or9NkMAYd_KjXbj-26" vertex="1"><mxGeometry y="202" width="160" height="26" as="geometry"/></mxCell><mxCell id="qUsb-Or9NkMAYd_KjXbj-27" value="Airport" style="swimlane;fontStyle=0;align=center;verticalAlign=top;childLayout=stackLayout;horizontal=1;startSize=26;horizontalStack=0;resizeParent=1;resizeLast=0;collapsible=1;marginBottom=0;shadow=0;strokeWidth=1;fillColor=#F5AB50;strokeColor=#909090;fontColor=#1A1A1A;" parent="WIyWlLk6GJQsqaUBKTNV-1" vertex="1"><mxGeometry x="1386" y="1120" width="160" height="228" as="geometry"><mxRectangle x="230" y="140" width="160" height="26" as="alternateBounds"/></mxGeometry></mxCell><mxCell id="qUsb-Or9NkMAYd_KjXbj-45" value="codeICAO" style="text;align=left;verticalAlign=top;spacingLeft=4;spacingRight=4;overflow=hidden;rotatable=0;points=[[0,0.5],[1,0.5]];portConstraint=eastwest;fontColor=#1A1A1A;" parent="qUsb-Or9NkMAYd_KjXbj-27" vertex="1"><mxGeometry y="26" width="160" height="26" as="geometry"/></mxCell><mxCell id="qUsb-Or9NkMAYd_KjXbj-46" value="airportName" style="text;align=left;verticalAlign=top;spacingLeft=4;spacingRight=4;overflow=hidden;rotatable=0;points=[[0,0.5],[1,0.5]];portConstraint=eastwest;fontColor=#1A1A1A;" parent="qUsb-Or9NkMAYd_KjXbj-27" vertex="1"><mxGeometry y="52" width="160" height="26" as="geometry"/></mxCell><mxCell id="qUsb-Or9NkMAYd_KjXbj-47" value="city" style="text;align=left;verticalAlign=top;spacingLeft=4;spacingRight=4;overflow=hidden;rotatable=0;points=[[0,0.5],[1,0.5]];portConstraint=eastwest;fontColor=#1A1A1A;" parent="qUsb-Or9NkMAYd_KjXbj-27" vertex="1"><mxGeometry y="78" width="160" height="26" as="geometry"/></mxCell><mxCell id="qUsb-Or9NkMAYd_KjXbj-48" value="country" style="text;align=left;verticalAlign=top;spacingLeft=4;spacingRight=4;overflow=hidden;rotatable=0;points=[[0,0.5],[1,0.5]];portConstraint=eastwest;fontColor=#1A1A1A;" parent="qUsb-Or9NkMAYd_KjXbj-27" vertex="1"><mxGeometry y="104" width="160" height="26" as="geometry"/></mxCell><mxCell id="qUsb-Or9NkMAYd_KjXbj-49" value="latitude" style="text;align=left;verticalAlign=top;spacingLeft=4;spacingRight=4;overflow=hidden;rotatable=0;points=[[0,0.5],[1,0.5]];portConstraint=eastwest;fontColor=#1A1A1A;" parent="qUsb-Or9NkMAYd_KjXbj-27" vertex="1"><mxGeometry y="130" width="160" height="26" as="geometry"/></mxCell><mxCell id="qUsb-Or9NkMAYd_KjXbj-50" value="longitude" style="text;align=left;verticalAlign=top;spacingLeft=4;spacingRight=4;overflow=hidden;rotatable=0;points=[[0,0.5],[1,0.5]];portConstraint=eastwest;fontColor=#1A1A1A;" parent="qUsb-Or9NkMAYd_KjXbj-27" vertex="1"><mxGeometry y="156" width="160" height="26" as="geometry"/></mxCell><mxCell id="HoxNiRwLISyxpea-4E4_-34" value="" style="verticalLabelPosition=bottom;shadow=0;dashed=0;align=center;html=1;verticalAlign=top;strokeWidth=1;shape=mxgraph.mockup.markup.line;strokeColor=#999999;" parent="qUsb-Or9NkMAYd_KjXbj-27" vertex="1"><mxGeometry y="182" width="160" height="20" as="geometry"/></mxCell><mxCell id="HoxNiRwLISyxpea-4E4_-33" value="Airport()" style="text;align=left;verticalAlign=top;spacingLeft=4;spacingRight=4;overflow=hidden;rotatable=0;points=[[0,0.5],[1,0.5]];portConstraint=eastwest;fontColor=#1A1A1A;" parent="qUsb-Or9NkMAYd_KjXbj-27" vertex="1"><mxGeometry y="202" width="160" height="26" as="geometry"/></mxCell><mxCell id="qUsb-Or9NkMAYd_KjXbj-51" style="edgeStyle=orthogonalEdgeStyle;orthogonalLoop=1;jettySize=auto;html=1;entryX=0;entryY=0.5;entryDx=0;entryDy=0;exitX=1;exitY=0.5;exitDx=0;exitDy=0;strokeColor=#182E3E;fontColor=#1A1A1A;labelBackgroundColor=#EEEEEE;" parent="WIyWlLk6GJQsqaUBKTNV-1" source="zkfFHV4jXpPFQw0GAbJ--20" target="qUsb-Or9NkMAYd_KjXbj-8" edge="1"><mxGeometry relative="1" as="geometry"/></mxCell><mxCell id="qUsb-Or9NkMAYd_KjXbj-52" value="1" style="edgeLabel;html=1;align=center;verticalAlign=middle;resizable=0;points=[];fontSize=15;labelBackgroundColor=none;fontColor=#1A1A1A;" parent="qUsb-Or9NkMAYd_KjXbj-51" vertex="1" connectable="0"><mxGeometry x="0.2625" y="-3" relative="1" as="geometry"><mxPoint x="29" y="-22" as="offset"/></mxGeometry></mxCell><mxCell id="qUsb-Or9NkMAYd_KjXbj-53" value="1" style="edgeLabel;html=1;align=center;verticalAlign=middle;resizable=0;points=[];fontSize=15;labelBackgroundColor=none;fontColor=#1A1A1A;" parent="WIyWlLk6GJQsqaUBKTNV-1" vertex="1" connectable="0"><mxGeometry x="740.0028571428571" y="540" as="geometry"/></mxCell><mxCell id="qUsb-Or9NkMAYd_KjXbj-54" style="edgeStyle=orthogonalEdgeStyle;orthogonalLoop=1;jettySize=auto;html=1;entryX=0;entryY=0.5;entryDx=0;entryDy=0;fontSize=15;strokeColor=#182E3E;fontColor=#1A1A1A;labelBackgroundColor=#EEEEEE;" parent="WIyWlLk6GJQsqaUBKTNV-1" source="qUsb-Or9NkMAYd_KjXbj-8" target="qUsb-Or9NkMAYd_KjXbj-14" edge="1"><mxGeometry relative="1" as="geometry"/></mxCell><mxCell id="qUsb-Or9NkMAYd_KjXbj-55" value="1" style="edgeLabel;html=1;align=center;verticalAlign=middle;resizable=0;points=[];fontSize=15;labelBackgroundColor=none;fontColor=#1A1A1A;" parent="WIyWlLk6GJQsqaUBKTNV-1" vertex="1" connectable="0"><mxGeometry x="1050.002857142857" y="540" as="geometry"/></mxCell><mxCell id="qUsb-Or9NkMAYd_KjXbj-56" value="0..*" style="edgeLabel;html=1;align=center;verticalAlign=middle;resizable=0;points=[];fontSize=15;labelBackgroundColor=none;fontColor=#1A1A1A;" parent="WIyWlLk6GJQsqaUBKTNV-1" vertex="1" connectable="0"><mxGeometry x="1100.002857142857" y="540" as="geometry"><mxPoint x="1" y="-1" as="offset"/></mxGeometry></mxCell><mxCell id="qUsb-Or9NkMAYd_KjXbj-57" style="edgeStyle=orthogonalEdgeStyle;orthogonalLoop=1;jettySize=auto;html=1;entryX=0;entryY=0.25;entryDx=0;entryDy=0;fontSize=15;strokeColor=#182E3E;fontColor=#1A1A1A;labelBackgroundColor=#EEEEEE;" parent="WIyWlLk6GJQsqaUBKTNV-1" source="zkfFHV4jXpPFQw0GAbJ--21" target="qUsb-Or9NkMAYd_KjXbj-0" edge="1"><mxGeometry relative="1" as="geometry"/></mxCell><mxCell id="qUsb-Or9NkMAYd_KjXbj-58" value="1" style="edgeLabel;html=1;align=center;verticalAlign=middle;resizable=0;points=[];fontSize=15;labelBackgroundColor=none;fontColor=#1A1A1A;" parent="WIyWlLk6GJQsqaUBKTNV-1" vertex="1" connectable="0"><mxGeometry x="740.0028571428571" y="575" as="geometry"/></mxCell><mxCell id="qUsb-Or9NkMAYd_KjXbj-59" value="0..*" style="edgeLabel;html=1;align=center;verticalAlign=middle;resizable=0;points=[];fontSize=15;labelBackgroundColor=none;fontColor=#1A1A1A;" parent="WIyWlLk6GJQsqaUBKTNV-1" vertex="1" connectable="0"><mxGeometry x="859.0028571428571" y="705" as="geometry"><mxPoint x="-3" y="-10" as="offset"/></mxGeometry></mxCell><mxCell id="qUsb-Or9NkMAYd_KjXbj-60" style="edgeStyle=orthogonalEdgeStyle;orthogonalLoop=1;jettySize=auto;html=1;fontSize=15;strokeColor=#182E3E;fontColor=#1A1A1A;labelBackgroundColor=#EEEEEE;entryX=0;entryY=0.5;entryDx=0;entryDy=0;" parent="WIyWlLk6GJQsqaUBKTNV-1" source="zkfFHV4jXpPFQw0GAbJ--22" target="qUsb-Or9NkMAYd_KjXbj-28" edge="1"><mxGeometry relative="1" as="geometry"><Array as="points"><mxPoint x="745" y="611"/><mxPoint x="745" y="965"/></Array><mxPoint x="694" y="1053" as="targetPoint"/></mxGeometry></mxCell><mxCell id="qUsb-Or9NkMAYd_KjXbj-61" value="1" style="edgeLabel;html=1;align=center;verticalAlign=middle;resizable=0;points=[];fontSize=15;labelBackgroundColor=none;fontColor=#1A1A1A;" parent="WIyWlLk6GJQsqaUBKTNV-1" vertex="1" connectable="0"><mxGeometry x="740.0028571428571" y="598" as="geometry"/></mxCell><mxCell id="qUsb-Or9NkMAYd_KjXbj-62" value="0..*" style="edgeLabel;html=1;align=center;verticalAlign=middle;resizable=0;points=[];fontSize=15;labelBackgroundColor=none;fontColor=#1A1A1A;" parent="WIyWlLk6GJQsqaUBKTNV-1" vertex="1" connectable="0"><mxGeometry x="799.0028571428571" y="975" as="geometry"><mxPoint x="-46" y="6" as="offset"/></mxGeometry></mxCell><mxCell id="qUsb-Or9NkMAYd_KjXbj-64" style="edgeStyle=orthogonalEdgeStyle;orthogonalLoop=1;jettySize=auto;html=1;entryX=1;entryY=0.5;entryDx=0;entryDy=0;fontSize=15;strokeColor=#182E3E;fontColor=#1A1A1A;labelBackgroundColor=#EEEEEE;exitX=0;exitY=0.5;exitDx=0;exitDy=0;" parent="WIyWlLk6GJQsqaUBKTNV-1" source="qUsb-Or9NkMAYd_KjXbj-40" target="qUsb-Or9NkMAYd_KjXbj-28" edge="1"><mxGeometry relative="1" as="geometry"><mxPoint x="1120" y="919" as="targetPoint"/><Array as="points"><mxPoint x="1193" y="913"/><mxPoint x="1193" y="919"/><mxPoint x="1104" y="919"/><mxPoint x="1104" y="965"/></Array><mxPoint x="1196" y="1002" as="sourcePoint"/></mxGeometry></mxCell><mxCell id="qUsb-Or9NkMAYd_KjXbj-65" style="edgeStyle=orthogonalEdgeStyle;orthogonalLoop=1;jettySize=auto;html=1;entryX=0;entryY=0.5;entryDx=0;entryDy=0;fontSize=15;strokeColor=#182E3E;fontColor=#1A1A1A;labelBackgroundColor=#EEEEEE;exitX=1.002;exitY=1.038;exitDx=0;exitDy=0;exitPerimeter=0;" parent="WIyWlLk6GJQsqaUBKTNV-1" source="qUsb-Or9NkMAYd_KjXbj-31" target="qUsb-Or9NkMAYd_KjXbj-41" edge="1"><mxGeometry relative="1" as="geometry"><Array as="points"><mxPoint x="1076" y="1005"/><mxPoint x="1076" y="1159"/></Array></mxGeometry></mxCell><mxCell id="qUsb-Or9NkMAYd_KjXbj-66" style="edgeStyle=orthogonalEdgeStyle;orthogonalLoop=1;jettySize=auto;html=1;entryX=0;entryY=0.5;entryDx=0;entryDy=0;fontSize=15;strokeColor=#182E3E;fontColor=#1A1A1A;labelBackgroundColor=#EEEEEE;exitX=1;exitY=0.5;exitDx=0;exitDy=0;" parent="WIyWlLk6GJQsqaUBKTNV-1" source="qUsb-Or9NkMAYd_KjXbj-79" edge="1"><mxGeometry relative="1" as="geometry"><mxPoint x="1638" y="1064" as="targetPoint"/><Array as="points"><mxPoint x="1515" y="939"/><mxPoint x="1515" y="1064"/></Array></mxGeometry></mxCell><mxCell id="qUsb-Or9NkMAYd_KjXbj-67" style="edgeStyle=orthogonalEdgeStyle;orthogonalLoop=1;jettySize=auto;html=1;entryX=0;entryY=0.5;entryDx=0;entryDy=0;fontSize=15;strokeColor=#182E3E;fontColor=#1A1A1A;labelBackgroundColor=#EEEEEE;" parent="WIyWlLk6GJQsqaUBKTNV-1" source="qUsb-Or9NkMAYd_KjXbj-41" target="qUsb-Or9NkMAYd_KjXbj-45" edge="1"><mxGeometry relative="1" as="geometry"/></mxCell><mxCell id="qUsb-Or9NkMAYd_KjXbj-68" style="edgeStyle=orthogonalEdgeStyle;orthogonalLoop=1;jettySize=auto;html=1;entryX=0;entryY=0.5;entryDx=0;entryDy=0;fontSize=15;strokeColor=#182E3E;fontColor=#1A1A1A;labelBackgroundColor=#EEEEEE;" parent="WIyWlLk6GJQsqaUBKTNV-1" source="qUsb-Or9NkMAYd_KjXbj-42" target="qUsb-Or9NkMAYd_KjXbj-46" edge="1"><mxGeometry relative="1" as="geometry"/></mxCell><mxCell id="qUsb-Or9NkMAYd_KjXbj-69" value="1..*" style="edgeLabel;html=1;align=center;verticalAlign=middle;resizable=0;points=[];fontSize=15;labelBackgroundColor=none;fontColor=#1A1A1A;" parent="WIyWlLk6GJQsqaUBKTNV-1" vertex="1" connectable="0"><mxGeometry x="1062.002857142857" y="957" as="geometry"><mxPoint x="6" y="-5" as="offset"/></mxGeometry></mxCell><mxCell id="qUsb-Or9NkMAYd_KjXbj-71" value="0..*" style="edgeLabel;html=1;align=center;verticalAlign=middle;resizable=0;points=[];fontSize=15;labelBackgroundColor=none;fontColor=#1A1A1A;" parent="WIyWlLk6GJQsqaUBKTNV-1" vertex="1" connectable="0"><mxGeometry x="1412.002857142857" y="928" as="geometry"/></mxCell><mxCell id="qUsb-Or9NkMAYd_KjXbj-73" value="1" style="edgeLabel;html=1;align=center;verticalAlign=middle;resizable=0;points=[];fontSize=15;labelBackgroundColor=none;fontColor=#1A1A1A;" parent="WIyWlLk6GJQsqaUBKTNV-1" vertex="1" connectable="0"><mxGeometry x="1060.002857142857" y="984" as="geometry"><mxPoint x="-3" y="12" as="offset"/></mxGeometry></mxCell><mxCell id="qUsb-Or9NkMAYd_KjXbj-74" value="1" style="edgeLabel;html=1;align=center;verticalAlign=middle;resizable=0;points=[];fontSize=15;labelBackgroundColor=none;fontColor=#1A1A1A;" parent="WIyWlLk6GJQsqaUBKTNV-1" vertex="1" connectable="0"><mxGeometry x="1100.002857142857" y="1140" as="geometry"/></mxCell><mxCell id="qUsb-Or9NkMAYd_KjXbj-75" value="1" style="edgeLabel;html=1;align=center;verticalAlign=middle;resizable=0;points=[];fontSize=15;labelBackgroundColor=none;fontColor=#1A1A1A;" parent="WIyWlLk6GJQsqaUBKTNV-1" vertex="1" connectable="0"><mxGeometry x="1403.002857142857" y="1151" as="geometry"><mxPoint x="-36" y="-7" as="offset"/></mxGeometry></mxCell><mxCell id="qUsb-Or9NkMAYd_KjXbj-76" value="1" style="edgeLabel;html=1;align=center;verticalAlign=middle;resizable=0;points=[];fontSize=15;labelBackgroundColor=none;fontColor=#1A1A1A;" parent="WIyWlLk6GJQsqaUBKTNV-1" vertex="1" connectable="0"><mxGeometry x="1377.002857142857" y="1170" as="geometry"><mxPoint x="-13" as="offset"/></mxGeometry></mxCell><mxCell id="qUsb-Or9NkMAYd_KjXbj-77" value="0..*" style="edgeLabel;html=1;align=center;verticalAlign=middle;resizable=0;points=[];fontSize=15;labelBackgroundColor=none;fontColor=#1A1A1A;" parent="WIyWlLk6GJQsqaUBKTNV-1" vertex="1" connectable="0"><mxGeometry x="1300.002857142857" y="1140" as="geometry"/></mxCell><mxCell id="qUsb-Or9NkMAYd_KjXbj-78" value="0..*" style="edgeLabel;html=1;align=center;verticalAlign=middle;resizable=0;points=[];fontSize=15;labelBackgroundColor=none;fontColor=#1A1A1A;" parent="WIyWlLk6GJQsqaUBKTNV-1" vertex="1" connectable="0"><mxGeometry x="1300.002857142857" y="1170" as="geometry"/></mxCell><mxCell id="qUsb-Or9NkMAYd_KjXbj-82" value="1" style="edgeLabel;html=1;align=center;verticalAlign=middle;resizable=0;points=[];fontSize=15;labelBackgroundColor=none;fontColor=#1A1A1A;" parent="WIyWlLk6GJQsqaUBKTNV-1" vertex="1" connectable="0"><mxGeometry x="1090.002857142857" y="598" as="geometry"/></mxCell><mxCell id="qUsb-Or9NkMAYd_KjXbj-83" value="1" style="edgeLabel;html=1;align=center;verticalAlign=middle;resizable=0;points=[];fontSize=15;labelBackgroundColor=none;fontColor=#1A1A1A;" parent="WIyWlLk6GJQsqaUBKTNV-1" vertex="1" connectable="0"><mxGeometry x="940.002857142857" y="860" as="geometry"/></mxCell><mxCell id="qUsb-Or9NkMAYd_KjXbj-84" value="0..1" style="edgeLabel;html=1;align=center;verticalAlign=middle;resizable=0;points=[];fontSize=15;labelBackgroundColor=none;fontColor=#1A1A1A;" parent="WIyWlLk6GJQsqaUBKTNV-1" vertex="1" connectable="0"><mxGeometry x="1608.002857142857" y="1051" as="geometry"><mxPoint x="-4" as="offset"/></mxGeometry></mxCell><mxCell id="2" value="Passenger" style="swimlane;fontStyle=0;align=center;verticalAlign=top;childLayout=stackLayout;horizontal=1;startSize=26;horizontalStack=0;resizeParent=1;resizeLast=0;collapsible=1;marginBottom=0;shadow=0;strokeWidth=1;fillColor=#F5AB50;strokeColor=#909090;fontColor=#1A1A1A;" parent="WIyWlLk6GJQsqaUBKTNV-1" vertex="1"><mxGeometry x="1664" y="690" width="168" height="228" as="geometry"><mxRectangle x="230" y="140" width="160" height="26" as="alternateBounds"/></mxGeometry></mxCell><mxCell id="3" value="firstName" style="text;align=left;verticalAlign=top;spacingLeft=4;spacingRight=4;overflow=hidden;rotatable=0;points=[[0,0.5],[1,0.5]];portConstraint=eastwest;fontColor=#1A1A1A;" parent="2" vertex="1"><mxGeometry y="26" width="168" height="26" as="geometry"/></mxCell><mxCell id="4" value="lastName" style="text;align=left;verticalAlign=top;spacingLeft=4;spacingRight=4;overflow=hidden;rotatable=0;points=[[0,0.5],[1,0.5]];portConstraint=eastwest;fontColor=#1A1A1A;" parent="2" vertex="1"><mxGeometry y="52" width="168" height="26" as="geometry"/></mxCell><mxCell id="5" value="dateOfBirth" style="text;align=left;verticalAlign=top;spacingLeft=4;spacingRight=4;overflow=hidden;rotatable=0;points=[[0,0.5],[1,0.5]];portConstraint=eastwest;fontColor=#1A1A1A;" parent="2" vertex="1"><mxGeometry y="78" width="168" height="26" as="geometry"/></mxCell><mxCell id="6" value="phoneNumber" style="text;align=left;verticalAlign=top;spacingLeft=4;spacingRight=4;overflow=hidden;rotatable=0;points=[[0,0.5],[1,0.5]];portConstraint=eastwest;fontColor=#1A1A1A;" parent="2" vertex="1"><mxGeometry y="104" width="168" height="26" as="geometry"/></mxCell><mxCell id="7" value="emailAddress" style="text;align=left;verticalAlign=top;spacingLeft=4;spacingRight=4;overflow=hidden;rotatable=0;points=[[0,0.5],[1,0.5]];portConstraint=eastwest;fontColor=#1A1A1A;" parent="2" vertex="1"><mxGeometry y="130" width="168" height="26" as="geometry"/></mxCell><mxCell id="8" value="nationality" style="text;align=left;verticalAlign=top;spacingLeft=4;spacingRight=4;overflow=hidden;rotatable=0;points=[[0,0.5],[1,0.5]];portConstraint=eastwest;fontColor=#1A1A1A;" parent="2" vertex="1"><mxGeometry y="156" width="168" height="26" as="geometry"/></mxCell><mxCell id="HoxNiRwLISyxpea-4E4_-66" value="" style="verticalLabelPosition=bottom;shadow=0;dashed=0;align=center;html=1;verticalAlign=top;strokeWidth=1;shape=mxgraph.mockup.markup.line;strokeColor=#999999;" parent="2" vertex="1"><mxGeometry y="182" width="168" height="20" as="geometry"/></mxCell><mxCell id="HoxNiRwLISyxpea-4E4_-64" value="Passenger()" style="text;align=left;verticalAlign=top;spacingLeft=4;spacingRight=4;overflow=hidden;rotatable=0;points=[[0,0.5],[1,0.5]];portConstraint=eastwest;fontColor=#1A1A1A;" parent="2" vertex="1"><mxGeometry y="202" width="168" height="26" as="geometry"/></mxCell><mxCell id="HoxNiRwLISyxpea-4E4_-17" value="&lt;font color=&quot;#080808&quot;&gt;0..*&lt;/font&gt;" style="text;html=1;align=center;verticalAlign=middle;resizable=0;points=[];autosize=1;strokeColor=none;" parent="WIyWlLk6GJQsqaUBKTNV-1" vertex="1"><mxGeometry x="1161" y="891" width="28" height="18" as="geometry"/></mxCell><mxCell id="HoxNiRwLISyxpea-4E4_-25" value="0..*" style="edgeLabel;html=1;align=center;verticalAlign=middle;resizable=0;points=[];fontSize=15;labelBackgroundColor=none;fontColor=#1A1A1A;" parent="WIyWlLk6GJQsqaUBKTNV-1" vertex="1" connectable="0"><mxGeometry x="913.5028571428571" y="768" as="geometry"><mxPoint x="722" y="23" as="offset"/></mxGeometry></mxCell><mxCell id="HoxNiRwLISyxpea-4E4_-26" value="0..*" style="edgeLabel;html=1;align=center;verticalAlign=middle;resizable=0;points=[];fontSize=15;labelBackgroundColor=none;fontColor=#1A1A1A;" parent="WIyWlLk6GJQsqaUBKTNV-1" vertex="1" connectable="0"><mxGeometry x="686.0028571428571" y="860" as="geometry"><mxPoint x="722" y="23" as="offset"/></mxGeometry></mxCell><mxCell id="HoxNiRwLISyxpea-4E4_-37" value="&lt;&lt;ENUM&gt;&gt;&#10;BookingClass" style="swimlane;fontStyle=0;align=center;verticalAlign=top;childLayout=stackLayout;horizontal=1;startSize=39;horizontalStack=0;resizeParent=1;resizeLast=0;collapsible=1;marginBottom=0;shadow=0;strokeWidth=1;fillColor=#F5AB50;strokeColor=#909090;fontColor=#1A1A1A;" parent="WIyWlLk6GJQsqaUBKTNV-1" vertex="1"><mxGeometry x="1398" y="642" width="160" height="121" as="geometry"><mxRectangle x="230" y="140" width="160" height="26" as="alternateBounds"/></mxGeometry></mxCell><mxCell id="HoxNiRwLISyxpea-4E4_-38" value="ECONOMY" style="text;align=left;verticalAlign=top;spacingLeft=4;spacingRight=4;overflow=hidden;rotatable=0;points=[[0,0.5],[1,0.5]];portConstraint=eastwest;fontColor=#1A1A1A;" parent="HoxNiRwLISyxpea-4E4_-37" vertex="1"><mxGeometry y="39" width="160" height="26" as="geometry"/></mxCell><mxCell id="HoxNiRwLISyxpea-4E4_-39" value="BUSINESS" style="text;align=left;verticalAlign=top;spacingLeft=4;spacingRight=4;overflow=hidden;rotatable=0;points=[[0,0.5],[1,0.5]];portConstraint=eastwest;fontColor=#1A1A1A;" parent="HoxNiRwLISyxpea-4E4_-37" vertex="1"><mxGeometry y="65" width="160" height="26" as="geometry"/></mxCell><mxCell id="HoxNiRwLISyxpea-4E4_-40" value="FIRST" style="text;align=left;verticalAlign=top;spacingLeft=4;spacingRight=4;overflow=hidden;rotatable=0;points=[[0,0.5],[1,0.5]];portConstraint=eastwest;fontColor=#1A1A1A;" parent="HoxNiRwLISyxpea-4E4_-37" vertex="1"><mxGeometry y="91" width="160" height="26" as="geometry"/></mxCell><mxCell id="HoxNiRwLISyxpea-4E4_-45" style="edgeStyle=orthogonalEdgeStyle;orthogonalLoop=1;jettySize=auto;html=1;entryX=0;entryY=0.5;entryDx=0;entryDy=0;fontSize=15;strokeColor=#182E3E;fontColor=#1A1A1A;labelBackgroundColor=#EEEEEE;exitX=1;exitY=0.25;exitDx=0;exitDy=0;" parent="WIyWlLk6GJQsqaUBKTNV-1" source="qUsb-Or9NkMAYd_KjXbj-19" target="6" edge="1"><mxGeometry relative="1" as="geometry"><mxPoint x="1286" y="705" as="sourcePoint"/><mxPoint x="1532" y="856" as="targetPoint"/></mxGeometry></mxCell><mxCell id="HoxNiRwLISyxpea-4E4_-46" style="edgeStyle=orthogonalEdgeStyle;orthogonalLoop=1;jettySize=auto;html=1;entryX=0.5;entryY=1;entryDx=0;entryDy=0;fontSize=15;strokeColor=#182E3E;fontColor=#1A1A1A;labelBackgroundColor=#EEEEEE;exitX=0.75;exitY=0;exitDx=0;exitDy=0;" parent="WIyWlLk6GJQsqaUBKTNV-1" source="qUsb-Or9NkMAYd_KjXbj-19" target="HoxNiRwLISyxpea-4E4_-37" edge="1"><mxGeometry relative="1" as="geometry"><mxPoint x="1402" y="904" as="sourcePoint"/><mxPoint x="1674" y="817" as="targetPoint"/><Array as="points"><mxPoint x="1352" y="817"/><mxPoint x="1478" y="817"/></Array></mxGeometry></mxCell><mxCell id="HoxNiRwLISyxpea-4E4_-55" value="Customer" style="swimlane;fontStyle=0;align=center;verticalAlign=top;childLayout=stackLayout;horizontal=1;startSize=26;horizontalStack=0;resizeParent=1;resizeLast=0;collapsible=1;marginBottom=0;shadow=0;strokeWidth=1;fillColor=#F5AB50;strokeColor=#909090;fontColor=#1A1A1A;" parent="WIyWlLk6GJQsqaUBKTNV-1" vertex="1"><mxGeometry x="1640" y="984" width="168" height="254" as="geometry"><mxRectangle x="230" y="140" width="160" height="26" as="alternateBounds"/></mxGeometry></mxCell><mxCell id="HoxNiRwLISyxpea-4E4_-56" value="firstName" style="text;align=left;verticalAlign=top;spacingLeft=4;spacingRight=4;overflow=hidden;rotatable=0;points=[[0,0.5],[1,0.5]];portConstraint=eastwest;fontColor=#1A1A1A;" parent="HoxNiRwLISyxpea-4E4_-55" vertex="1"><mxGeometry y="26" width="168" height="26" as="geometry"/></mxCell><mxCell id="HoxNiRwLISyxpea-4E4_-57" value="lastName" style="text;align=left;verticalAlign=top;spacingLeft=4;spacingRight=4;overflow=hidden;rotatable=0;points=[[0,0.5],[1,0.5]];portConstraint=eastwest;fontColor=#1A1A1A;" parent="HoxNiRwLISyxpea-4E4_-55" vertex="1"><mxGeometry y="52" width="168" height="26" as="geometry"/></mxCell><mxCell id="HoxNiRwLISyxpea-4E4_-58" value="dateOfBirth" style="text;align=left;verticalAlign=top;spacingLeft=4;spacingRight=4;overflow=hidden;rotatable=0;points=[[0,0.5],[1,0.5]];portConstraint=eastwest;fontColor=#1A1A1A;" parent="HoxNiRwLISyxpea-4E4_-55" vertex="1"><mxGeometry y="78" width="168" height="26" as="geometry"/></mxCell><mxCell id="HoxNiRwLISyxpea-4E4_-59" value="phoneNumber" style="text;align=left;verticalAlign=top;spacingLeft=4;spacingRight=4;overflow=hidden;rotatable=0;points=[[0,0.5],[1,0.5]];portConstraint=eastwest;fontColor=#1A1A1A;" parent="HoxNiRwLISyxpea-4E4_-55" vertex="1"><mxGeometry y="104" width="168" height="26" as="geometry"/></mxCell><mxCell id="HoxNiRwLISyxpea-4E4_-60" value="emailAddress" style="text;align=left;verticalAlign=top;spacingLeft=4;spacingRight=4;overflow=hidden;rotatable=0;points=[[0,0.5],[1,0.5]];portConstraint=eastwest;fontColor=#1A1A1A;" parent="HoxNiRwLISyxpea-4E4_-55" vertex="1"><mxGeometry y="130" width="168" height="26" as="geometry"/></mxCell><mxCell id="HoxNiRwLISyxpea-4E4_-61" value="nationality" style="text;align=left;verticalAlign=top;spacingLeft=4;spacingRight=4;overflow=hidden;rotatable=0;points=[[0,0.5],[1,0.5]];portConstraint=eastwest;fontColor=#1A1A1A;" parent="HoxNiRwLISyxpea-4E4_-55" vertex="1"><mxGeometry y="156" width="168" height="26" as="geometry"/></mxCell><mxCell id="HoxNiRwLISyxpea-4E4_-62" value="bookings" style="text;align=left;verticalAlign=top;spacingLeft=4;spacingRight=4;overflow=hidden;rotatable=0;points=[[0,0.5],[1,0.5]];portConstraint=eastwest;fontColor=#1A1A1A;" parent="HoxNiRwLISyxpea-4E4_-55" vertex="1"><mxGeometry y="182" width="168" height="26" as="geometry"/></mxCell><mxCell id="HoxNiRwLISyxpea-4E4_-76" value="" style="verticalLabelPosition=bottom;shadow=0;dashed=0;align=center;html=1;verticalAlign=top;strokeWidth=1;shape=mxgraph.mockup.markup.line;strokeColor=#999999;" parent="HoxNiRwLISyxpea-4E4_-55" vertex="1"><mxGeometry y="208" width="168" height="20" as="geometry"/></mxCell><mxCell id="HoxNiRwLISyxpea-4E4_-63" value="Customer()" style="text;align=left;verticalAlign=top;spacingLeft=4;spacingRight=4;overflow=hidden;rotatable=0;points=[[0,0.5],[1,0.5]];portConstraint=eastwest;fontColor=#1A1A1A;" parent="HoxNiRwLISyxpea-4E4_-55" vertex="1"><mxGeometry y="228" width="168" height="26" as="geometry"/></mxCell></root></mxGraphModel></diagram></mxfile>